<?xml version="1.0" encoding="UTF-8"?>
<!DOCTYPE svg PUBLIC "-//W3C//DTD SVG 1.1//EN" "http://www.w3.org/Graphics/SVG/1.1/DTD/svg11.dtd">
<svg xmlns="http://www.w3.org/2000/svg" version="1.1" width="800px" height="800px" style="shape-rendering:geometricPrecision; text-rendering:geometricPrecision; image-rendering:optimizeQuality; fill-rule:evenodd; clip-rule:evenodd" xmlns:xlink="http://www.w3.org/1999/xlink">
<g><path style="opacity:1" fill="#fefefe" d="M -0.5,-0.5 C 266.167,-0.5 532.833,-0.5 799.5,-0.5C 799.5,266.167 799.5,532.833 799.5,799.5C 532.833,799.5 266.167,799.5 -0.5,799.5C -0.5,532.833 -0.5,266.167 -0.5,-0.5 Z"/></g>
<g><path style="opacity:1" fill="#4b3521" d="M 380.5,48.5 C 505.102,45.7278 605.602,93.0612 682,190.5C 747.256,282.681 765.922,383.681 738,493.5C 702.235,610.265 627.069,689.765 512.5,732C 389.657,769.641 277.657,749.308 176.5,671C 92.0443,598.736 49.3776,506.736 48.5,395C 52.6243,280.412 99.6243,188.079 189.5,118C 246.285,76.1253 309.952,52.9586 380.5,48.5 Z"/></g>
<g><path style="opacity:1" fill="#fefefe" d="M 376.5,57.5 C 504.008,53.6768 605.508,102.677 681,204.5C 748.889,308.644 759.889,418.644 714,534.5C 671.767,628.401 601.934,691.901 504.5,725C 379.564,761.173 267.897,737.173 169.5,653C 86.7724,573.978 49.9391,477.145 59,362.5C 75,246.581 133.167,159.081 233.5,100C 278.308,75.7209 325.975,61.5542 376.5,57.5 Z"/></g>
<g><path style="opacity:1" fill="#4a3521" d="M 388.5,107.5 C 390.167,107.5 391.833,107.5 393.5,107.5C 393.216,109.415 393.549,111.081 394.5,112.5C 395.457,123.477 396.124,134.477 396.5,145.5C 393.482,145.665 390.482,145.498 387.5,145C 381.715,138.594 376.049,132.094 370.5,125.5C 369.828,132.803 369.828,140.137 370.5,147.5C 367.5,147.5 364.5,147.5 361.5,147.5C 360.476,134.854 359.809,122.187 359.5,109.5C 362.518,109.335 365.518,109.502 368.5,110C 373.978,117.112 379.811,123.946 386,130.5C 386.321,122.83 386.154,115.163 385.5,107.5C 386.5,107.5 387.5,107.5 388.5,107.5 Z"/></g>
<g><path style="opacity:1" fill="#928478" d="M 388.5,107.5 C 390.265,106.539 392.265,106.205 394.5,106.5C 394.5,108.5 394.5,110.5 394.5,112.5C 393.549,111.081 393.216,109.415 393.5,107.5C 391.833,107.5 390.167,107.5 388.5,107.5 Z"/></g>
<g><path style="opacity:1" fill="#4b3521" d="M 451.5,111.5 C 458.814,113.329 466.148,115.162 473.5,117C 481.376,121.07 483.542,127.237 480,135.5C 478.488,138.857 475.988,140.857 472.5,141.5C 473.218,146.323 474.551,150.99 476.5,155.5C 476,155.833 475.5,156.167 475,156.5C 471.971,155.495 468.971,154.495 466,153.5C 465.005,149.855 464.172,146.188 463.5,142.5C 460.882,142.221 458.382,141.554 456,140.5C 454.236,143.557 453.402,146.89 453.5,150.5C 449.987,150.693 446.654,150.026 443.5,148.5C 446.49,136.227 449.156,123.894 451.5,111.5 Z"/></g>
<g><path style="opacity:1" fill="#4b3521" d="M 315.5,118.5 C 318.652,117.959 321.152,118.959 323,121.5C 330.5,131 338,140.5 345.5,150C 342.864,150.934 340.197,151.768 337.5,152.5C 334.856,151.018 332.356,149.352 330,147.5C 325.428,148.601 320.928,149.934 316.5,151.5C 315.205,154.012 314.539,156.679 314.5,159.5C 311.762,159.851 309.096,160.518 306.5,161.5C 306.167,160.5 305.833,159.5 305.5,158.5C 307.492,145.897 308.825,133.231 309.5,120.5C 311.786,120.405 313.786,119.738 315.5,118.5 Z"/></g>
<g><path style="opacity:1" fill="#f5f3f2" d="M 459.5,121.5 C 463.833,121.915 467.833,123.248 471.5,125.5C 473.565,131.04 471.732,134.373 466,135.5C 463.432,135.066 460.932,134.4 458.5,133.5C 458.167,132.667 457.833,131.833 457.5,131C 458.483,127.888 459.15,124.722 459.5,121.5 Z"/></g>
<g><path style="opacity:1" fill="#f0efed" d="M 316.5,129.5 C 320.442,132.45 323.775,136.116 326.5,140.5C 323.46,141.375 320.46,142.375 317.5,143.5C 316.507,138.88 316.173,134.214 316.5,129.5 Z"/></g>
<g><path style="opacity:1" fill="#4b3522" d="M 519.5,133.5 C 522.573,134.199 525.573,135.199 528.5,136.5C 529.667,150.508 529.5,164.508 528,178.5C 525.209,177.438 522.543,176.105 520,174.5C 519.818,171.774 519.318,169.107 518.5,166.5C 514.177,164.088 509.677,162.088 505,160.5C 502.409,161.434 500.076,162.767 498,164.5C 495.278,163.556 492.778,162.223 490.5,160.5C 500.488,151.845 510.155,142.845 519.5,133.5 Z"/></g>
<g><path style="opacity:1" fill="#4b3522" d="M 271.5,134.5 C 278.17,145.203 284.503,156.203 290.5,167.5C 288.309,170.281 285.642,171.281 282.5,170.5C 279,164.167 275.5,157.833 272,151.5C 272.071,158.164 272.571,164.831 273.5,171.5C 272.033,173.498 270.2,175.164 268,176.5C 262.894,173.028 258.06,169.194 253.5,165C 252.668,164.312 252.002,164.479 251.5,165.5C 254.833,171.5 258.167,177.5 261.5,183.5C 259.33,185.086 256.996,186.42 254.5,187.5C 248.055,176.784 241.722,165.951 235.5,155C 238.5,153.167 241.5,151.333 244.5,149.5C 250.833,154.167 257.167,158.833 263.5,163.5C 264.333,155.507 264.5,147.507 264,139.5C 266.479,137.686 268.979,136.019 271.5,134.5 Z"/></g>
<g><path style="opacity:1" fill="#f4f3f2" d="M 519.5,144.5 C 520.486,148.97 520.819,153.637 520.5,158.5C 516.813,157.824 513.48,156.324 510.5,154C 513.704,150.964 516.704,147.797 519.5,144.5 Z"/></g>
<g><path style="opacity:1" fill="#4c3623" d="M 563.5,156.5 C 570.948,161.064 578.281,165.897 585.5,171C 586.517,172.049 586.684,173.216 586,174.5C 584.647,175.685 583.48,177.019 582.5,178.5C 577.737,175.037 572.903,171.704 568,168.5C 565.815,170.353 563.982,172.52 562.5,175C 567.167,178.333 571.833,181.667 576.5,185C 575,187.167 573.5,189.333 572,191.5C 567.333,188.167 562.667,184.833 558,181.5C 555.155,185.205 552.322,188.872 549.5,192.5C 547.5,191.167 545.5,189.833 543.5,188.5C 542.417,187.635 542.251,186.635 543,185.5C 550.053,175.954 556.886,166.287 563.5,156.5 Z"/></g>
<g><path style="opacity:1" fill="#49331f" d="M 405.5,160.5 C 413.069,161.665 415.569,165.998 413,173.5C 388.059,227.714 363.393,282.048 339,336.5C 307.46,409.12 283.127,484.12 266,561.5C 260.75,581.964 265.083,584.631 279,569.5C 283.333,563.833 287.667,558.167 292,552.5C 319.397,508.096 346.397,463.429 373,418.5C 390.706,389.755 410.373,362.421 432,336.5C 442.692,324.131 454.859,313.631 468.5,305C 477.53,298.841 486.363,299.007 495,305.5C 501.866,316.676 504.366,328.842 502.5,342C 500.809,371.207 501.309,400.374 504,429.5C 505.713,437.687 508.047,445.687 511,453.5C 515.536,460.844 522.036,463.344 530.5,461C 538.215,458.643 545.215,454.976 551.5,450C 574.949,425.557 597.283,400.224 618.5,374C 626.386,372.553 629.553,375.72 628,383.5C 619.439,396.729 610.105,409.396 600,421.5C 586.866,436.967 572.7,451.467 557.5,465C 543.71,475.281 528.376,478.948 511.5,476C 506.381,473.215 502.214,469.382 499,464.5C 489.368,442.718 485.201,419.885 486.5,396C 487.38,375.503 487.546,355.003 487,334.5C 486.17,329.857 485.503,325.19 485,320.5C 483.136,317.793 480.636,316.959 477.5,318C 464.269,326.391 452.436,336.558 442,348.5C 420.335,374.168 401.001,401.502 384,430.5C 355.172,480.837 324.838,530.17 293,578.5C 286.833,586 280,592.833 272.5,599C 258.446,606.932 250.279,603.099 248,587.5C 247.292,578.409 247.959,569.409 250,560.5C 270.469,472.094 299.135,386.427 336,303.5C 356.726,257.714 377.726,212.047 399,166.5C 400.545,163.655 402.712,161.655 405.5,160.5 Z"/></g>
<g><path style="opacity:1" fill="#4a3421" d="M 205.5,177.5 C 217.165,175.097 225.665,179.097 231,189.5C 233.44,206.225 226.274,215.558 209.5,217.5C 195.795,214.775 189.962,206.442 192,192.5C 194.972,186.033 199.472,181.033 205.5,177.5 Z"/></g>
<g><path style="opacity:1" fill="#f9f9f8" d="M 206.5,186.5 C 217.824,185.326 222.991,190.326 222,201.5C 218.578,208.296 213.411,210.129 206.5,207C 198.51,199.996 198.51,193.162 206.5,186.5 Z"/></g>
<g><path style="opacity:1" fill="#4c3623" d="M 604.5,188.5 C 607.975,189.802 610.142,192.135 611,195.5C 603.198,204.303 595.031,212.803 586.5,221C 585.833,221.667 585.167,221.667 584.5,221C 582.269,219.39 580.269,217.557 578.5,215.5C 587.16,206.506 595.827,197.506 604.5,188.5 Z"/></g>
<g><path style="opacity:1" fill="#4b3521" d="M 192.5,244.5 C 182.81,244.168 173.144,244.502 163.5,245.5C 163.624,246.107 163.957,246.44 164.5,246.5C 170.122,250.282 175.622,254.282 181,258.5C 181.667,259.167 181.667,259.833 181,260.5C 179.333,262.5 177.667,264.5 176,266.5C 167.101,259.301 157.934,252.468 148.5,246C 147.426,245.261 146.759,244.261 146.5,243C 147.818,241.01 149.152,239.01 150.5,237C 160.167,236.667 169.833,236.333 179.5,236C 173.641,231.308 167.641,226.808 161.5,222.5C 162.851,219.804 164.684,217.47 167,215.5C 176.951,222.449 186.617,229.783 196,237.5C 195.934,240.3 194.767,242.633 192.5,244.5 Z"/></g>
<g><path style="opacity:1" fill="#4b3522" d="M 620.5,219.5 C 635.135,219.137 643.802,226.137 646.5,240.5C 644.745,255.42 636.412,261.92 621.5,260C 619.919,259.293 618.419,258.46 617,257.5C 615.879,262.21 617.712,264.877 622.5,265.5C 622.849,268.463 621.849,270.796 619.5,272.5C 609.446,268.725 606.113,261.725 609.5,251.5C 602.46,236.97 606.127,226.303 620.5,219.5 Z"/></g>
<g><path style="opacity:1" fill="#faf9f9" d="M 622.5,229.5 C 635.501,228.86 639.667,234.527 635,246.5C 628.233,253.424 621.9,253.091 616,245.5C 614.062,238.389 616.229,233.056 622.5,229.5 Z"/></g>
<g><path style="opacity:1" fill="#9f948a" d="M 192.5,244.5 C 183.167,245.167 173.833,245.833 164.5,246.5C 163.957,246.44 163.624,246.107 163.5,245.5C 173.144,244.502 182.81,244.168 192.5,244.5 Z"/></g>
<g><path style="opacity:1" fill="#4f3a27" d="M 113.5,324.5 C 122.758,326.064 131.758,328.397 140.5,331.5C 139.234,336.802 138.067,342.135 137,347.5C 134.833,349 133.333,348.5 132.5,346C 133.947,341.93 134.947,337.763 135.5,333.5C 132.71,333.051 130.044,333.051 127.5,333.5C 126.079,337.028 125.412,340.694 125.5,344.5C 124.167,344.5 122.833,344.5 121.5,344.5C 121.538,339.729 122.204,335.062 123.5,330.5C 119.993,330.693 116.66,330.027 113.5,328.5C 112.708,327.3 112.708,325.967 113.5,324.5 Z"/></g>
<g><path style="opacity:1" fill="#523d2a" d="M 685.5,322.5 C 686.434,323.772 687.101,325.272 687.5,327C 685.355,329.145 683.188,331.312 681,333.5C 680.825,336.157 680.992,338.824 681.5,341.5C 684.518,341.296 687.518,340.963 690.5,340.5C 690.5,342.167 690.5,343.833 690.5,345.5C 682.274,346.788 674.107,348.455 666,350.5C 664.674,350.245 663.674,349.578 663,348.5C 662.325,344.135 661.492,339.802 660.5,335.5C 661.274,329.764 664.608,326.764 670.5,326.5C 673.703,326.768 676.37,328.102 678.5,330.5C 680.856,327.814 683.189,325.147 685.5,322.5 Z"/></g>
<g><path style="opacity:1" fill="#f9f8f8" d="M 667.5,331.5 C 670.365,331.055 672.865,331.722 675,333.5C 676.461,336.679 677.295,340.012 677.5,343.5C 674.041,343.531 670.708,344.198 667.5,345.5C 664.889,340.747 664.889,336.08 667.5,331.5 Z"/></g>
<g><path style="opacity:1" fill="#4e3825" d="M 126.5,363.5 C 128.607,364.468 130.941,364.802 133.5,364.5C 133.5,365.833 133.5,367.167 133.5,368.5C 126.811,368.305 120.144,368.138 113.5,368C 108.257,372.745 108.257,377.412 113.5,382C 119.757,383.317 126.091,383.817 132.5,383.5C 132.5,385.167 132.5,386.833 132.5,388.5C 124.564,388.75 116.897,387.583 109.5,385C 104.603,378.924 104.27,372.59 108.5,366C 109.672,365.581 110.672,364.915 111.5,364C 116.489,363.501 121.489,363.334 126.5,363.5 Z"/></g>
<g><path style="opacity:1" fill="#928579" d="M 126.5,363.5 C 129.167,363.5 131.833,363.5 134.5,363.5C 134.784,365.415 134.451,367.081 133.5,368.5C 133.5,367.167 133.5,365.833 133.5,364.5C 130.941,364.802 128.607,364.468 126.5,363.5 Z"/></g>
<g><path style="opacity:1" fill="#4d3724" d="M 675.5,388.5 C 672.833,388.5 670.167,388.5 667.5,388.5C 667.806,385.615 667.473,382.948 666.5,380.5C 666.5,376.833 666.5,373.167 666.5,369.5C 667.833,369.5 669.167,369.5 670.5,369.5C 670.5,371.833 670.5,374.167 670.5,376.5C 670.5,379.167 670.5,381.833 670.5,384.5C 673.385,384.806 676.052,384.473 678.5,383.5C 678.5,379.167 678.5,374.833 678.5,370.5C 679.833,370.5 681.167,370.5 682.5,370.5C 682.5,374.833 682.5,379.167 682.5,383.5C 685.167,383.5 687.833,383.5 690.5,383.5C 690.5,378.167 690.5,372.833 690.5,367.5C 691.833,367.5 693.167,367.5 694.5,367.5C 694.833,374.167 695.167,380.833 695.5,387.5C 688.833,387.833 682.167,388.167 675.5,388.5 Z"/></g>
<g><path style="opacity:1" fill="#9b8f84" d="M 670.5,376.5 C 671.468,378.607 671.802,380.941 671.5,383.5C 673.833,383.5 676.167,383.5 678.5,383.5C 676.052,384.473 673.385,384.806 670.5,384.5C 670.5,381.833 670.5,379.167 670.5,376.5 Z"/></g>
<g><path style="opacity:1" fill="#b1a8a0" d="M 666.5,380.5 C 667.473,382.948 667.806,385.615 667.5,388.5C 670.167,388.5 672.833,388.5 675.5,388.5C 672.713,389.477 669.713,389.81 666.5,389.5C 666.5,386.5 666.5,383.5 666.5,380.5 Z"/></g>
<g><path style="opacity:1" fill="#503a27" d="M 671.5,407.5 C 676.118,406.924 680.285,407.924 684,410.5C 685.388,415.372 685.888,420.372 685.5,425.5C 688.167,425.5 690.833,425.5 693.5,425.5C 693.5,427.167 693.5,428.833 693.5,430.5C 684.139,430.164 674.806,429.498 665.5,428.5C 665.752,423.481 666.252,418.481 667,413.5C 668.332,411.34 669.832,409.34 671.5,407.5 Z"/></g>
<g><path style="opacity:1" fill="#4e3925" d="M 109.5,418.5 C 109.5,420.833 109.5,423.167 109.5,425.5C 108.5,425.5 107.5,425.5 106.5,425.5C 106.795,423.265 106.461,421.265 105.5,419.5C 105.5,416.167 105.5,412.833 105.5,409.5C 114.806,408.55 124.139,407.883 133.5,407.5C 133.5,409.167 133.5,410.833 133.5,412.5C 125.483,412.501 117.483,412.834 109.5,413.5C 109.5,415.167 109.5,416.833 109.5,418.5 Z"/></g>
<g><path style="opacity:1" fill="#f9f8f8" d="M 673.5,411.5 C 676.652,410.959 679.152,411.959 681,414.5C 681.498,417.817 681.665,421.15 681.5,424.5C 677.833,424.5 674.167,424.5 670.5,424.5C 669.738,419.607 670.738,415.274 673.5,411.5 Z"/></g>
<g><path style="opacity:1" fill="#95887c" d="M 109.5,418.5 C 110.473,420.948 110.806,423.615 110.5,426.5C 108.833,426.5 107.167,426.5 105.5,426.5C 105.5,424.167 105.5,421.833 105.5,419.5C 106.461,421.265 106.795,423.265 106.5,425.5C 107.5,425.5 108.5,425.5 109.5,425.5C 109.5,423.167 109.5,420.833 109.5,418.5 Z"/></g>
<g><path style="opacity:1" fill="#513b28" d="M 132.5,441.5 C 136.5,440.833 138.167,442.5 137.5,446.5C 129.849,447.593 122.183,448.593 114.5,449.5C 114.748,453.906 115.415,458.24 116.5,462.5C 114.833,462.5 113.167,462.5 111.5,462.5C 111.223,457.114 110.556,451.781 109.5,446.5C 117.365,445.196 125.032,443.529 132.5,441.5 Z"/></g>
<g><path style="opacity:1" fill="#503b28" d="M 668.5,448.5 C 682.853,448.008 688.687,454.674 686,468.5C 682.351,476.505 676.184,479.339 667.5,477C 657.54,470.408 656.04,462.242 663,452.5C 665.015,451.303 666.849,449.97 668.5,448.5 Z"/></g>
<g><path style="opacity:1" fill="#faf9f9" d="M 668.5,453.5 C 679.041,452.539 683.541,457.205 682,467.5C 676,475.5 670,475.5 664,467.5C 663.333,464.5 663.333,461.5 664,458.5C 665.707,456.963 667.207,455.296 668.5,453.5 Z"/></g>
<g><path style="opacity:1" fill="#4f3a27" d="M 672.5,497.5 C 674.346,497.222 675.68,497.889 676.5,499.5C 674.428,504.05 672.762,508.717 671.5,513.5C 664.332,511.588 657.332,509.088 650.5,506C 648.187,505.359 646.52,504.026 645.5,502C 645.613,500.72 646.28,499.887 647.5,499.5C 653.96,502.264 660.46,504.931 667,507.5C 667.772,507.355 668.439,507.022 669,506.5C 670.271,503.516 671.438,500.516 672.5,497.5 Z"/></g>
<g><path style="opacity:1" fill="#4f3926" d="M 144.5,497.5 C 154.309,498.726 158.642,504.392 157.5,514.5C 155.833,514.5 154.167,514.5 152.5,514.5C 152.816,511.022 152.316,507.688 151,504.5C 149.867,502.789 148.367,502.289 146.5,503C 145.693,508.083 145.193,513.25 145,518.5C 139.186,524.205 134.186,523.538 130,516.5C 128.805,512.249 128.305,507.915 128.5,503.5C 130.199,503.34 131.866,503.506 133.5,504C 131.733,508.962 132.733,513.295 136.5,517C 137.5,517.667 138.5,517.667 139.5,517C 140.307,511.917 140.807,506.75 141,501.5C 142.376,500.295 143.542,498.962 144.5,497.5 Z"/></g>
<g><path style="opacity:1" fill="#503a27" d="M 636.5,520.5 C 637.973,521.072 639.307,521.905 640.5,523C 637.328,527.173 635.161,531.673 634,536.5C 635.667,537.5 637.333,538.5 639,539.5C 641.503,536.498 643.503,533.165 645,529.5C 646.88,528.07 648.38,528.404 649.5,530.5C 647.246,534.007 645.246,537.673 643.5,541.5C 645.228,543.226 647.228,544.559 649.5,545.5C 652.171,542.163 654.337,538.496 656,534.5C 659.047,531.69 660.38,532.357 660,536.5C 656.997,541.656 653.83,546.656 650.5,551.5C 643.082,547.04 635.582,542.707 628,538.5C 627.333,537.5 627.333,536.5 628,535.5C 631.061,530.611 633.895,525.611 636.5,520.5 Z"/></g>
<g><path style="opacity:1" fill="#4f3a26" d="M 164.5,527.5 C 167.385,528.545 169.552,530.545 171,533.5C 173,536.833 175,540.167 177,543.5C 177.925,546.134 177.091,547.301 174.5,547C 172.943,544.704 171.276,542.538 169.5,540.5C 163.106,545.117 156.439,548.951 149.5,552C 148.12,550.676 147.786,549.343 148.5,548C 155.002,544.25 161.335,540.25 167.5,536C 164.829,533.543 163.829,530.709 164.5,527.5 Z"/></g>
<g><path style="opacity:1" fill="#513c29" d="M 617.5,551.5 C 622.559,559.27 627.392,567.27 632,575.5C 632.558,578.054 631.725,580.054 629.5,581.5C 620.023,578.896 610.69,575.896 601.5,572.5C 602.27,570.728 603.603,569.728 605.5,569.5C 611.97,571.601 618.47,573.601 625,575.5C 625.5,575.167 626,574.833 626.5,574.5C 622.581,568.33 618.914,561.997 615.5,555.5C 616.18,554.14 616.847,552.807 617.5,551.5 Z"/></g>
<g><path style="opacity:1" fill="#503a27" d="M 188.5,566.5 C 191.908,565.828 194.575,566.828 196.5,569.5C 192,578.5 187.5,587.5 183,596.5C 181.833,595.333 180.667,594.167 179.5,593C 181.377,590.769 182.21,588.269 182,585.5C 179.147,582.948 176.647,580.115 174.5,577C 171.8,576.747 169.133,576.747 166.5,577C 165.643,576.311 164.977,575.478 164.5,574.5C 172.592,571.818 180.592,569.151 188.5,566.5 Z"/></g>
<g><path style="opacity:1" fill="#f3f1f0" d="M 186.5,571.5 C 187.873,571.343 189.207,571.51 190.5,572C 188.539,575.421 186.706,578.921 185,582.5C 182.46,580.295 180.293,577.795 178.5,575C 181.231,573.828 183.898,572.661 186.5,571.5 Z"/></g>
<g><path style="opacity:1" fill="#513c29" d="M 590.5,583.5 C 592.446,584.254 593.279,585.588 593,587.5C 589.799,591.036 586.299,594.203 582.5,597C 584.333,598.833 586.167,600.667 588,602.5C 591.015,599.317 594.182,596.317 597.5,593.5C 598.833,594.167 599.833,595.167 600.5,596.5C 597.015,599.484 593.682,602.651 590.5,606C 592.333,607.833 594.167,609.667 596,611.5C 599.167,608.333 602.333,605.167 605.5,602C 607.319,601.217 608.652,601.717 609.5,603.5C 605.167,608.5 600.5,613.167 595.5,617.5C 589.194,610.86 582.861,604.193 576.5,597.5C 581.494,593.173 586.161,588.506 590.5,583.5 Z"/></g>
<g><path style="opacity:1" fill="#4f3a27" d="M 209.5,594.5 C 220.864,592.893 227.864,597.56 230.5,608.5C 228.833,608.5 227.167,608.5 225.5,608.5C 224.496,600.983 220.162,597.816 212.5,599C 206.334,602.656 204.834,607.822 208,614.5C 210.408,617.62 213.574,618.953 217.5,618.5C 217.5,619.833 217.5,621.167 217.5,622.5C 202.781,620.932 198.281,613.265 204,599.5C 205.812,597.7 207.645,596.033 209.5,594.5 Z"/></g>
<g><path style="opacity:1" fill="#503b28" d="M 556.5,613.5 C 569.953,614.411 575.12,621.411 572,634.5C 568.208,639.294 563.541,642.961 558,645.5C 552.105,638.723 546.939,631.389 542.5,623.5C 546.878,619.655 551.545,616.322 556.5,613.5 Z"/></g>
<g><path style="opacity:1" fill="#4e3926" d="M 246.5,615.5 C 247.973,616.072 249.307,616.905 250.5,618C 248.167,621.667 245.833,625.333 243.5,629C 249.491,628.173 255.491,627.006 261.5,625.5C 263.266,626.091 264.933,626.924 266.5,628C 261.598,629.642 256.598,630.809 251.5,631.5C 251.666,638.175 251.5,644.842 251,651.5C 250,650.833 249,650.167 248,649.5C 247.639,644.086 246.806,638.752 245.5,633.5C 241.246,633.92 238.246,636.086 236.5,640C 234.711,640.52 233.044,640.187 231.5,639C 236.635,631.223 241.635,623.39 246.5,615.5 Z"/></g>
<g><path style="opacity:1" fill="#fbfafa" d="M 555.5,618.5 C 565.482,617.982 569.649,622.648 568,632.5C 565.628,635.37 562.795,637.703 559.5,639.5C 555.479,634.804 551.812,629.804 548.5,624.5C 550.678,622.255 553.012,620.255 555.5,618.5 Z"/></g>
<g><path style="opacity:1" fill="#4e3925" d="M 301.5,645.5 C 306.236,646.635 310.903,647.968 315.5,649.5C 313.641,655.91 311.474,662.243 309,668.5C 305.799,674.759 301.299,675.925 295.5,672C 291.919,669.573 291.753,667.073 295,664.5C 296.674,668.253 299.507,669.753 303.5,669C 306.197,663.409 308.197,657.576 309.5,651.5C 307.063,651.244 304.729,650.577 302.5,649.5C 301.571,648.311 301.238,646.978 301.5,645.5 Z"/></g>
<g><path style="opacity:1" fill="#4f3a27" d="M 496.5,644.5 C 502.34,643.579 506.007,645.913 507.5,651.5C 507.124,653.383 506.124,654.883 504.5,656C 509.577,656.024 512.244,658.524 512.5,663.5C 512.444,666.111 511.444,668.278 509.5,670C 504.822,672.226 499.989,674.059 495,675.5C 490.94,667.678 487.44,659.511 484.5,651C 488.374,648.564 492.374,646.397 496.5,644.5 Z"/></g>
<g><path style="opacity:1" fill="#f7f6f5" d="M 495.5,649.5 C 502.19,648.331 503.857,650.497 500.5,656C 497.758,657.823 494.925,658.323 492,657.5C 491.5,656 491,654.5 490.5,653C 491.921,651.377 493.588,650.21 495.5,649.5 Z"/></g>
<g><path style="opacity:1" fill="#4f3a26" d="M 461.5,655.5 C 465.241,654.599 467.241,655.932 467.5,659.5C 462.827,660.223 458.16,661.057 453.5,662C 452.864,664.394 452.864,666.894 453.5,669.5C 458.167,668.833 462.833,668.167 467.5,667.5C 467.5,668.833 467.5,670.167 467.5,671.5C 463.476,672.038 459.476,672.705 455.5,673.5C 455.104,676.482 455.771,679.149 457.5,681.5C 462.465,680.288 467.465,679.288 472.5,678.5C 472.773,680.451 472.107,681.951 470.5,683C 464.448,683.977 458.448,685.144 452.5,686.5C 450.833,677.164 449.166,667.831 447.5,658.5C 452.471,658.344 457.138,657.344 461.5,655.5 Z"/></g>
<g><path style="opacity:1" fill="#523d2a" d="M 336.5,656.5 C 342.346,656.279 347.346,658.113 351.5,662C 351.22,663.395 350.553,664.562 349.5,665.5C 345.865,661.914 341.699,660.914 337,662.5C 336.333,663.5 336.333,664.5 337,665.5C 339.564,667.727 342.397,669.561 345.5,671C 351.133,676.487 350.466,681.154 343.5,685C 336.631,685.736 330.964,683.403 326.5,678C 327.354,676.978 328.354,676.145 329.5,675.5C 333.276,679.656 337.776,680.989 343,679.5C 343.667,678.167 343.667,676.833 343,675.5C 340.252,673.542 337.418,671.709 334.5,670C 330.188,664.731 330.855,660.231 336.5,656.5 Z"/></g>
<g><path style="opacity:1" fill="#f5f4f3" d="M 501.5,659.5 C 506,659.164 507.833,661.164 507,665.5C 504.111,667.634 500.944,669.301 497.5,670.5C 496.024,668.58 495.024,666.413 494.5,664C 496.691,662.222 499.024,660.722 501.5,659.5 Z"/></g>
<g><path style="opacity:1" fill="#503b27" d="M 426.5,662.5 C 428.288,662.215 429.955,662.548 431.5,663.5C 429.03,672.243 426.363,680.909 423.5,689.5C 421.955,690.452 420.288,690.785 418.5,690.5C 416.569,683.708 414.236,677.042 411.5,670.5C 409.032,677.374 407.032,684.374 405.5,691.5C 403.712,691.785 402.045,691.452 400.5,690.5C 397.167,681.833 393.833,673.167 390.5,664.5C 392.167,663.167 393.833,663.167 395.5,664.5C 397.901,671.538 400.401,678.538 403,685.5C 404.842,678.13 406.676,670.797 408.5,663.5C 410.467,663.261 412.301,663.594 414,664.5C 416.531,671.091 418.864,677.758 421,684.5C 423.157,677.206 424.99,669.872 426.5,662.5 Z"/></g>
</svg>
